<?xml version="1.0" encoding="utf-8"?>
<!-- Generator: Adobe Illustrator 24.0.1, SVG Export Plug-In . SVG Version: 6.00 Build 0)  -->
<svg version="1.1" id="Layer_1" xmlns="http://www.w3.org/2000/svg" xmlns:xlink="http://www.w3.org/1999/xlink" x="0px" y="0px"
	 viewBox="0 0 220.3 221.5" style="enable-background:new 0 0 220.3 221.5;" xml:space="preserve">
<style type="text/css">
	.st0{fill:#FFFFFF;stroke:#000000;stroke-width:2;stroke-miterlimit:10;}
</style>
<path d="M107.7,99.2c0.4,1.7,0.9,3.2,1.6,4.6c0.6,1.1,1.3,2.1,2.2,3c0.9,0.9,1.9,1.6,3,2.2c1.4,0.7,2.9,1.3,4.6,1.6
	c8.9,2,21.2-0.7,28.8-1.6c7.6-0.9,14.9-4.2,20.7-10c13.6-13.6,13.6-35.7,0-49.4c-13.6-13.6-35.7-13.6-49.4,0
	c-5.8,5.8-9.1,13.2-10,20.7C108.4,78.1,105.7,90.3,107.7,99.2z M157.6,60.7c3.9,3.9,3.9,10.3,0,14.3c-3.9,3.9-10.3,3.9-14.3,0
	c-3.9-3.9-3.9-10.3,0-14.3C147.3,56.8,153.7,56.8,157.6,60.7z"/>
<rect x="15.5" y="21.6" class="st0" width="116.2" height="77.3"/>
<path d="M91.5,139.1c11.2-9.9,27.3-15,27.3-15l-1.8-8c-0.3-0.1-5-1-9.3-5.3c-4.5-4.5-5.2-9-5.3-9.2l-8-1.8c0,0-5.1,16.1-15,27.3l2,2
	l-3.7,3.7l-1.8-1.8L37.8,169l1.8,1.8l-3.7,3.7l-1.8-1.8L24,185.1c-1.2,1.5-1.1,3.6,0.2,4.9l4.2,4.2c1.3,1.3,3.4,1.4,4.9,0.2
	l12.4-10.1l-1.8-1.8l3.7-3.7l1.8,1.8l38.1-38.1l-1.8-1.8l3.7-3.7L91.5,139.1z"/>
<g>
	<path d="M40.3,77.3c-1.9-1.9-2.9-4.4-2.9-7.5V46.3c0-3.1,1-5.6,2.9-7.5c1.9-1.9,4.5-2.9,7.6-2.9c3.1,0,5.6,1,7.6,2.9
		c1.9,1.9,2.9,4.4,2.9,7.5v23.5c0,3.1-1,5.6-2.9,7.5c-1.9,1.9-4.5,2.9-7.6,2.9C44.8,80.2,42.3,79.2,40.3,77.3z M50.8,72.9
		c0.7-0.7,1-1.8,1-3.1V46.3c0-1.4-0.3-2.4-1-3.1c-0.7-0.7-1.7-1.1-2.9-1.1c-1.2,0-2.2,0.4-2.9,1.1c-0.7,0.7-1,1.8-1,3.1v23.5
		c0,1.4,0.3,2.4,1,3.1c0.7,0.7,1.7,1.1,2.9,1.1C49.1,74,50.1,73.7,50.8,72.9z"/>
	<path d="M62.9,36.5h20.8v6.2h-7.1v36.9H70V42.6h-7.1V36.5z"/>
	<path d="M103.4,79.6l-4.7-17.8h-3.4v17.8h-6.5V36.5H99c3.1,0,5.6,0.9,7.5,2.8c1.8,1.9,2.8,4.4,2.8,7.5v4.7c0,2-0.4,3.7-1.2,5.2
		c-0.8,1.5-1.9,2.7-3.3,3.6l5.5,19.3H103.4z M95.3,55.6h3.4c1.3,0,2.3-0.3,3-1c0.7-0.7,1-1.7,1-3v-5c0-1.3-0.3-2.3-1-3
		c-0.7-0.7-1.7-1-3-1h-3.4V55.6z"/>
</g>
</svg>
