<?xml version="1.0" encoding="utf-8"?>
<!-- Generator: Adobe Illustrator 24.0.1, SVG Export Plug-In . SVG Version: 6.00 Build 0)  -->
<svg version="1.1" id="Layer_1" xmlns="http://www.w3.org/2000/svg" xmlns:xlink="http://www.w3.org/1999/xlink" x="0px" y="0px"
	 viewBox="0 0 220.3 221.5" style="enable-background:new 0 0 220.3 221.5;" xml:space="preserve">
<style type="text/css">
	.st0{fill:#FFFFFF;stroke:#000000;stroke-width:2;stroke-miterlimit:10;}
</style>
<path d="M107.7,99.2c0.4,1.7,0.9,3.2,1.6,4.6c0.6,1.1,1.3,2.1,2.2,3c0.9,0.9,1.9,1.6,3,2.2c1.4,0.7,2.9,1.3,4.6,1.6
	c8.9,2,21.2-0.7,28.8-1.6c7.6-0.9,14.9-4.2,20.7-10c13.6-13.6,13.6-35.7,0-49.4c-13.6-13.6-35.7-13.6-49.4,0
	c-5.8,5.8-9.1,13.2-10,20.7C108.4,78.1,105.7,90.3,107.7,99.2z M157.6,60.7c3.9,3.9,3.9,10.3,0,14.3c-3.9,3.9-10.3,3.9-14.3,0
	c-3.9-3.9-3.9-10.3,0-14.3C147.3,56.8,153.7,56.8,157.6,60.7z"/>
<rect x="15.5" y="21.6" class="st0" width="116.2" height="77.3"/>
<path d="M91.5,139.1c11.2-9.9,27.3-15,27.3-15l-1.8-8c-0.3-0.1-5-1-9.3-5.3c-4.5-4.5-5.2-9-5.3-9.2l-8-1.8c0,0-5.1,16.1-15,27.3l2,2
	l-3.7,3.7l-1.8-1.8L37.8,169l1.8,1.8l-3.7,3.7l-1.8-1.8L24,185.1c-1.2,1.5-1.1,3.6,0.2,4.9l4.2,4.2c1.3,1.3,3.4,1.4,4.9,0.2
	l12.4-10.1l-1.8-1.8l3.7-3.7l1.8,1.8l38.1-38.1l-1.8-1.8l3.7-3.7L91.5,139.1z"/>
<g>
	<path d="M34.3,37.9h11.1c3.4,0,6.1,1,8.1,3.1c2,2,3,4.8,3,8.2v5.5c0,3.4-1,6.1-3,8.2c-2,2-4.7,3.1-8.1,3.1h-4v19.1h-7.1V37.9z
		 M45.1,59.1c1.4,0,2.5-0.4,3.2-1.1c0.8-0.8,1.1-1.8,1.1-3.2V49c0-1.4-0.4-2.5-1.1-3.2c-0.8-0.8-1.8-1.1-3.2-1.1h-3.7v14.5H45.1z"/>
	<path d="M77.6,52.6v-4c0-1.5-0.4-2.6-1.1-3.4c-0.8-0.8-1.8-1.2-3.2-1.2c-1.3,0-2.4,0.4-3.2,1.2C69.4,46,69,47.1,69,48.6v25.6
		c0,1.5,0.4,2.6,1.1,3.4c0.8,0.8,1.8,1.2,3.2,1.2c1.3,0,2.4-0.4,3.2-1.2c0.8-0.8,1.1-1.9,1.1-3.4v-8.3h-4.3v-6.7h11.4v15
		c0,3.4-1.1,6.1-3.2,8.2c-2.1,2.1-4.9,3.1-8.3,3.1c-3.4,0-6.2-1-8.3-3.1c-2.1-2.1-3.2-4.8-3.2-8.2V48.6c0-3.4,1.1-6.1,3.2-8.2
		c2.1-2.1,4.9-3.1,8.3-3.1c3.4,0,6.1,1,8.3,3.1c2.1,2.1,3.2,4.8,3.2,8.2v4H77.6z"/>
	<path d="M91.6,37.9h11.1c3.4,0,6.1,1,8.1,3.1c2,2,3,4.8,3,8.2v5.5c0,3.4-1,6.1-3,8.2c-2,2-4.7,3.1-8.1,3.1h-4v19.1h-7.1V37.9z
		 M102.4,59.1c1.4,0,2.5-0.4,3.2-1.1c0.8-0.8,1.1-1.8,1.1-3.2V49c0-1.4-0.4-2.5-1.1-3.2c-0.8-0.8-1.8-1.1-3.2-1.1h-3.7v14.5H102.4z"
		/>
</g>
</svg>
